<?xml version="1.0" standalone="no"?><!DOCTYPE svg PUBLIC "-//W3C//DTD SVG 1.1//EN" "http://www.w3.org/Graphics/SVG/1.1/DTD/svg11.dtd"><svg class="icon" width="128px" height="107.17px" viewBox="0 0 1223 1024" version="1.1" xmlns="http://www.w3.org/2000/svg"><path d="M1098.991793 1023.516579H124.016721C55.712162 1023.516579 0.118734 967.724095 0.118734 899.163607V246.772599c0-68.560488 55.593428-124.352972 123.897987-124.352972h199.112625L379.689616 37.252202a82.949375 82.949375 0 0 1 69.328275-37.223426H773.876878c28.009988 0 53.944109 13.962339 69.385147 37.337172l56.503397 85.053679h199.226371C1167.296353 122.419627 1222.889781 178.212111 1222.889781 246.772599V899.163607c0 68.560488-55.593428 124.352972-123.897988 124.352972zM1137.580173 246.772599c0-21.327402-17.31785-38.730562-38.58838-38.730562h-244.867011l-81.897224-123.30082-323.209667 0.909969-80.219468 122.390851H124.016721C102.746192 208.042037 85.428342 225.445197 85.428342 246.772599V899.163607c0 21.327402 17.31785 38.730562 38.588379 38.730562h974.975072c21.270529 0 38.588379-17.40316 38.58838-38.730562V246.772599z m-138.030946 169.282698a80.219468 80.219468 0 0 1-79.991976-80.276341 80.247905 80.247905 0 0 1 79.991976-80.276341 80.191031 80.191031 0 0 1 79.963539 80.276341 80.191031 80.191031 0 0 1-79.963539 80.276341z m0-103.452117a23.175777 23.175777 0 0 0 0 46.37999 23.175777 23.175777 0 0 0 0-46.37999zM611.504257 901.267911c-180.344511 0-327.077037-147.215947-327.077037-328.186062 0-180.998551 146.732526-328.271371 327.077037-328.271371 180.344511 0 327.077037 147.18751 327.077037 328.157625 0 181.026988-146.732526 328.299808-327.077037 328.299808z m0-570.835023c-133.310481 0-241.767429 108.85506-241.767429 242.648961 0 133.737029 108.456948 242.563652 241.767429 242.563652 133.310481 0 241.767429-108.883496 241.767429-242.677398 0-133.737029-108.456948-242.535215-241.767429-242.535215z" fill="#707070" /></svg>