<?xml version="1.0" standalone="no"?><!DOCTYPE svg PUBLIC "-//W3C//DTD SVG 1.1//EN" "http://www.w3.org/Graphics/SVG/1.1/DTD/svg11.dtd"><svg class="icon" width="200px" height="200.00px" viewBox="0 0 1024 1024" version="1.1" xmlns="http://www.w3.org/2000/svg"><path d="M713.3184 905.2672h-482.816c-73.5232 0-133.12-59.5968-133.12-133.12V267.4176c0-73.5232 59.5968-133.12 133.12-133.12h503.296c73.5232 0 133.12 59.5968 133.12 133.12v484.3008c0 84.7872-68.8128 153.5488-153.6 153.5488z" fill="#80B7F9" /><path d="M695.296 729.4464m-234.752 0a234.752 234.752 0 1 0 469.504 0 234.752 234.752 0 1 0-469.504 0Z" fill="#80B7F9" /><path d="M866.9184 757.6576v-188.5696c-42.8544-45.824-103.8336-74.5472-171.52-74.5472-129.6896 0-234.752 105.1136-234.752 234.752 0 70.0928 30.7712 132.9664 79.4624 175.9744h179.1488c81.5104 0 147.6608-66.0992 147.6608-147.6096z" fill="#3E8BF8" /><path d="M308.5824 230.5536c-21.76 0-39.3728-17.6128-39.3728-39.3728V97.6896c0-21.76 17.6128-39.3728 39.3728-39.3728s39.3728 17.6128 39.3728 39.3728v93.4912c0 21.7088-17.664 39.3728-39.3728 39.3728zM659.3024 230.5536c-21.76 0-39.3728-17.6128-39.3728-39.3728V97.6896c0-21.76 17.6128-39.3728 39.3728-39.3728s39.3728 17.6128 39.3728 39.3728v93.4912c0 21.7088-17.664 39.3728-39.3728 39.3728z" fill="#80B7F9" /><path d="M269.2096 134.2976v56.8832c0 21.76 17.6128 39.3728 39.3728 39.3728s39.3728-17.6128 39.3728-39.3728V134.2976H269.2096zM619.9296 134.2976v56.8832c0 21.76 17.6128 39.3728 39.3728 39.3728s39.3728-17.6128 39.3728-39.3728V134.2976h-78.7456z" fill="#3E8BF8" /><path d="M757.0944 371.2512H207.104c-22.6304 0-40.96-18.3296-40.96-40.96s18.3296-40.96 40.96-40.96h549.9904c22.6304 0 40.96 18.3296 40.96 40.96s-18.3296 40.96-40.96 40.96zM273.5104 559.7184H207.104c-22.6304 0-40.96-18.3296-40.96-40.96s18.3296-40.96 40.96-40.96h66.4064c22.6304 0 40.96 18.3296 40.96 40.96s-18.3296 40.96-40.96 40.96zM463.7184 559.7184H397.312c-22.6304 0-40.96-18.3296-40.96-40.96s18.3296-40.96 40.96-40.96h66.4064c22.6304 0 40.96 18.3296 40.96 40.96s-18.3808 40.96-40.96 40.96zM666.4704 838.4512c-11.1616 0-21.8112-4.5568-29.5424-12.5952l-65.4848-68.1984a40.93952 40.93952 0 0 1 1.1776-57.9072 40.93952 40.93952 0 0 1 57.9072 1.1776l35.0208 36.5056 93.6448-103.4752a40.96 40.96 0 0 1 57.856-2.8672 40.91904 40.91904 0 0 1 2.8672 57.856l-123.136 136.0384a40.96 40.96 0 0 1-29.7472 13.4656h-0.5632z" fill="#FFFFFF" /></svg>