<?xml version="1.0" standalone="no"?><!DOCTYPE svg PUBLIC "-//W3C//DTD SVG 1.1//EN" "http://www.w3.org/Graphics/SVG/1.1/DTD/svg11.dtd"><svg class="icon" width="128px" height="128.00px" viewBox="0 0 1024 1024" version="1.1" xmlns="http://www.w3.org/2000/svg"><path d="M256 426.666667h512V371.2c0-29.866667 0-38.4-4.266667-51.2-4.266667-8.533333-8.533333-12.8-12.8-17.066667-12.8-4.266667-21.333333-4.266667-51.2-4.266666H682.666667V256h17.066666c38.4 0 51.2 4.266667 64 12.8 12.8 8.533333 25.6 17.066667 34.133334 34.133333 8.533333 8.533333 12.8 25.6 12.8 64v337.066667c0 38.4-4.266667 51.2-12.8 64-8.533333 12.8-17.066667 25.6-34.133334 34.133333-12.8 8.533333-25.6 12.8-64 12.8H324.266667c-38.4 0-51.2-4.266667-64-12.8-12.8-8.533333-25.6-17.066667-34.133334-34.133333-8.533333-12.8-12.8-29.866667-12.8-68.266667V366.933333c0-38.4 4.266667-55.466667 12.8-68.266666 4.266667-12.8 17.066667-25.6 29.866667-29.866667 12.8-8.533333 29.866667-12.8 68.266667-12.8H341.333333v42.666667h-17.066666c-29.866667 0-38.4 0-46.933334 8.533333-8.533333 4.266667-12.8 8.533333-17.066666 12.8C256 332.8 256 341.333333 256 371.2V426.666667z m0 42.666666v226.133334c0 29.866667 0 38.4 4.266667 51.2 4.266667 8.533333 8.533333 12.8 12.8 17.066666 12.8 4.266667 21.333333 4.266667 51.2 4.266667h379.733333c29.866667 0 38.4 0 46.933333-8.533333 8.533333-4.266667 12.8-8.533333 12.8-17.066667 4.266667-8.533333 4.266667-17.066667 4.266667-46.933333V469.333333H256z m298.666667-213.333333v42.666667h-85.333334V256h85.333334zM405.333333 213.333333c12.8 0 21.333333 8.533333 21.333334 21.333334v85.333333c0 12.8-8.533333 21.333333-21.333334 21.333333S384 332.8 384 320v-85.333333c0-12.8 8.533333-21.333333 21.333333-21.333334z m213.333334 0c12.8 0 21.333333 8.533333 21.333333 21.333334v85.333333c0 12.8-8.533333 21.333333-21.333333 21.333333s-21.333333-8.533333-21.333334-21.333333v-85.333333c0-12.8 8.533333-21.333333 21.333334-21.333334z" fill="#8a8a8a" /></svg>