<?xml version="1.0" standalone="no"?><!DOCTYPE svg PUBLIC "-//W3C//DTD SVG 1.1//EN" "http://www.w3.org/Graphics/SVG/1.1/DTD/svg11.dtd"><svg class="icon" width="200px" height="200.00px" viewBox="0 0 1024 1024" version="1.1" xmlns="http://www.w3.org/2000/svg"><path d="M1021.68064 387.510857a48.274286 48.274286 0 0 0-38.473143-34.011428l-296.009143-44.982858L554.809783 27.794286A47.542857 47.542857 0 0 0 512.021211 0a47.542857 47.542857 0 0 0-42.788571 27.794286l-132.388571 280.722285-296.009143 44.982858a48.274286 48.274286 0 0 0-38.473143 34.011428 51.565714 51.565714 0 0 0 12.068571 51.2l214.235429 218.404572-50.614857 308.516571a51.053714 51.053714 0 0 0 19.017143 48.859429 45.933714 45.933714 0 0 0 50.249142 3.730285l264.777143-145.627428 264.704 145.627428a46.153143 46.153143 0 0 0 50.249143-3.730285 51.053714 51.053714 0 0 0 19.017143-48.859429l-50.614857-308.516571 214.162286-218.477715a51.638857 51.638857 0 0 0 12.068571-51.2z" fill="#FFD700" /></svg>