<?xml version="1.0" standalone="no"?><!DOCTYPE svg PUBLIC "-//W3C//DTD SVG 1.1//EN" "http://www.w3.org/Graphics/SVG/1.1/DTD/svg11.dtd"><svg t="1587214048893" class="icon" viewBox="0 0 1024 1024" version="1.1" xmlns="http://www.w3.org/2000/svg" p-id="3403" width="128" height="128" xmlns:xlink="http://www.w3.org/1999/xlink"><defs><style type="text/css"></style></defs><path d="M725.333333 512v-3.84a37.546667 37.546667 0 0 0-2.56-11.946667 30.72 30.72 0 0 0-4.693333-8.106666 42.666667 42.666667 0 0 0-3.84-5.546667l-122.026667-128a42.666667 42.666667 0 0 0-61.866666 58.88L582.826667 469.333333H341.333333a42.666667 42.666667 0 0 0 0 85.333334h238.506667l-55.466667 55.04a42.666667 42.666667 0 0 0 0 60.586666 42.666667 42.666667 0 0 0 60.586667 0l128-128a42.666667 42.666667 0 0 0 8.96-13.653333A42.666667 42.666667 0 0 0 725.333333 512z" p-id="3404" fill="#cdcdcd"></path><path d="M512 85.333333a426.666667 426.666667 0 1 0 426.666667 426.666667A426.666667 426.666667 0 0 0 512 85.333333z m0 768a341.333333 341.333333 0 1 1 341.333333-341.333333 341.333333 341.333333 0 0 1-341.333333 341.333333z" p-id="3405" fill="#cdcdcd"></path></svg>