<?xml version="1.0" standalone="no"?><!DOCTYPE svg PUBLIC "-//W3C//DTD SVG 1.1//EN" "http://www.w3.org/Graphics/SVG/1.1/DTD/svg11.dtd"><svg class="icon" width="128px" height="128.00px" viewBox="0 0 1024 1024" version="1.1" xmlns="http://www.w3.org/2000/svg"><path d="M704 896.064c70.592 0 128-57.472 128-128.064s-57.408-128.064-128-128.064c-33.92 0-65.792 13.184-89.92 36.928l-35.328 34.944-42.624-25.472a580.672 580.672 0 0 1-198.4-198.464l-25.536-42.624 34.88-35.264c23.744-24.192 36.992-56 36.992-89.984 0-70.592-57.472-128-128.064-128s-128 57.472-128 128c0 317.632 258.432 576.064 576 576.064M704 960C350.528 960 64 673.472 64 320a192 192 0 1 1 328.576 134.912 515.392 515.392 0 0 0 176.512 176.512A192.064 192.064 0 0 1 896.064 768c0 106.048-86.08 192-192.064 192z" fill="#8a8a8a" /><path d="M576 383.936V320a128 128 0 0 1 128 128h-63.936c0-35.328-28.736-64.064-64.064-64.064" fill="#8a8a8a" /><path d="M576 256v-64a256 256 0 0 1 256 256h-64c0-105.856-86.144-192-192-192" fill="#8a8a8a" /><path d="M576 128V64a384 384 0 0 1 383.936 384h-63.872c0-176.448-143.616-320-320.064-320" fill="#8a8a8a" /></svg>