<?xml version="1.0" standalone="no"?><!DOCTYPE svg PUBLIC "-//W3C//DTD SVG 1.1//EN" "http://www.w3.org/Graphics/SVG/1.1/DTD/svg11.dtd"><svg class="icon" width="128px" height="128.00px" viewBox="0 0 1024 1024" version="1.1" xmlns="http://www.w3.org/2000/svg"><path d="M785.408 964.608H223.232c-93.696 0-167.936-74.24-167.936-165.888V245.76c0-91.648 76.288-166.4 167.936-166.4h472.576c15.36 0 28.672 11.264 28.672 26.624s-13.312 26.624-28.672 26.624H223.232c-60.928 0-113.152 49.664-113.152 111.104v552.96c0 60.928 49.664 111.104 113.152 111.104h562.176c60.928 0 113.152-49.664 113.152-111.104v-552.96c0-15.36 13.312-26.624 28.672-26.624 14.848 0 28.672 11.264 28.672 26.624v552.96c-2.048 93.696-76.8 167.936-170.496 167.936z" fill="#87c7e2" /><path d="M923.136 92.672l-436.224 430.592c-5.632 5.632-13.312 7.68-19.456 7.68-7.68 0-13.312-2.048-19.456-7.68-11.264-11.264-11.264-28.672 0-37.888l436.224-430.592c11.264-11.264 28.672-11.264 39.936 0 8.704 11.264 8.704 28.16-1.024 37.888z m-220.16 627.2H303.104c-15.36 0-28.672-11.264-28.672-26.624s13.312-26.624 28.672-26.624h399.872c15.36 0 28.672 11.264 28.672 26.624 0 12.8-13.312 26.624-28.672 26.624z" fill="#87c7e2" /></svg>