<?xml version="1.0" standalone="no"?><!DOCTYPE svg PUBLIC "-//W3C//DTD SVG 1.1//EN" "http://www.w3.org/Graphics/SVG/1.1/DTD/svg11.dtd"><svg class="icon" width="128px" height="128.00px" viewBox="0 0 1024 1024" version="1.1" xmlns="http://www.w3.org/2000/svg"><path d="M907.403636 149.224727c2.56 6.865455 3.863273 14.126545 3.863273 21.457455v625.268363a62.068364 62.068364 0 0 1-82.781091 58.507637l-138.402909-49.012364-2.350545 5.492364c-29.137455 63.837091-92.276364 105.472-162.56 104.261818-97.419636-1.722182-174.545455-84.363636-172.823273-184.087273a186.344727 186.344727 0 0 1 5.818182-43.240727l-50.408728-17.850182H186.181818a62.068364 62.068364 0 0 1-62.068363-62.045091V359.726545A62.068364 62.068364 0 0 1 186.181818 297.681455l139.194182-0.023273 502.341818-185.204364a62.068364 62.068364 0 0 1 79.709091 36.770909z m-490.356363 559.476364l1.256727-5.399273a124.276364 124.276364 0 0 0-3.909818 28.858182c-1.163636 65.954909 49.175273 119.877818 111.872 120.971636 45.242182 0.791273 86.248727-26.344727 105.216-68.445091l-214.434909-75.962181zM849.221818 170.705455l-523.403636 192.930909v246.923636l523.403636 185.413818V170.682182z m-589.591273 189.044363H186.181818v248.250182h73.425455V359.726545z" fill="#8a8a8a" /></svg>