<?xml version="1.0" standalone="no"?><!DOCTYPE svg PUBLIC "-//W3C//DTD SVG 1.1//EN" "http://www.w3.org/Graphics/SVG/1.1/DTD/svg11.dtd"><svg class="icon" width="200px" height="200.00px" viewBox="0 0 1024 1024" version="1.1" xmlns="http://www.w3.org/2000/svg"><path d="M479.9991 511.99904l95.99982 0.064V415.99922a31.99994 31.99994 0 1 1 63.99988 0v96.06382L735.99862 511.99904a31.99994 31.99994 0 1 1 0 63.99988l-95.99982 0.064V671.99874a31.99994 31.99994 0 1 1-63.99988 0V576.06292L479.9991 575.99892a31.99994 31.99994 0 1 1 0-63.99988zM95.99982 0.064h511.99904a95.99982 95.99982 0 0 1 95.99982 95.99982 31.99994 31.99994 0 1 1-63.99988 0 31.99994 31.99994 0 0 0-31.99994-31.99994h-511.99904a31.99994 31.99994 0 0 0-31.99994 31.99994v383.99928a31.99994 31.99994 0 0 0 31.99994 31.99994 31.99994 31.99994 0 1 1 0 63.99988 95.99982 95.99982 0 0 1-95.99982-95.99982v-383.99928a95.99982 95.99982 0 0 1 95.99982-95.99982z" fill="#87c7e2" /><path d="M287.99946 192.25564h639.9988a95.99982 95.99982 0 0 1 95.99982 95.99982v511.99904a95.99982 95.99982 0 0 1-95.99982 95.99982h-88.575834a31.99994 31.99994 0 0 0-22.591958 9.343982l-99.583813 99.583813a63.80788 63.80788 0 0 1-90.49583 0L527.167012 905.598302a31.99994 31.99994 0 0 0-22.655958-9.343982H287.99946a95.99982 95.99982 0 0 1-95.99982-95.99982v-511.99904a95.99982 95.99982 0 0 1 95.99982-95.99982z m-31.99994 607.99886a31.99994 31.99994 0 0 0 31.99994 31.99994h243.071544a31.99994 31.99994 0 0 1 22.591958 9.343982l118.271778 118.271778 0.064 0.064 118.335778-118.335778a31.99994 31.99994 0 0 1 22.655958-9.343982H927.99826a31.99994 31.99994 0 0 0 31.99994-31.99994v-511.99904a31.99994 31.99994 0 0 0-31.99994-31.99994h-639.9988a31.99994 31.99994 0 0 0-31.99994 31.99994v511.99904z" fill="#87c7e2" /></svg>