<?xml version="1.0" standalone="no"?><!DOCTYPE svg PUBLIC "-//W3C//DTD SVG 1.1//EN" "http://www.w3.org/Graphics/SVG/1.1/DTD/svg11.dtd"><svg class="icon" width="128px" height="128.00px" viewBox="0 0 1024 1024" version="1.1" xmlns="http://www.w3.org/2000/svg"><path d="M502.56096566431444 44.768055901003436c66.0732038473075 0 127.42689052677194 11.798792919607704 186.42083687356276 37.75611909149684s110.90859869056897 58.99392809554287 153.38421669866108 101.46956435488282c42.475636259339936 42.475636259339936 77.87199676691527 94.39028860311821 101.46956435488282 153.38421669866108 25.95732617188914 58.99392809554287 37.75611909149684 122.70737335892886 37.75611909149684 186.42083687356276 0 66.0732038473075-11.798792919607704 127.42689052677194-37.75611909149684 186.4208186223149s-58.99392809554287 110.90859869056897-101.46956435488282 153.38421669866108c-42.475636259339936 42.475636259339936-94.39028860311821 77.87199676691527-153.38421669866108 101.46956435488282-58.99392809554287 25.95732617188914-122.70737335892886 37.75611909149684-186.42083687356276 37.75611909149684-66.0732038473075 0-127.42689052677194-11.798792919607704-186.4208186223149-37.75611909149684s-110.90859869056897-58.99392809554287-153.38423494990894-101.46956435488282c-42.475636259339936-42.475636259339936-77.87199676691527-94.39028860311821-101.46954610363498-153.38421669866108-25.95732617188914-58.99392809554287-37.75611909149684-122.70737335892886-37.75611909149684-186.4208186223149 0-66.0732038473075 11.798792919607704-127.42689052677194 37.75611909149684-186.42083687356276s58.99392809554287-110.90859869056897 101.46954610363498-153.38421669866108c42.475636259339936-42.475636259339936 94.39028860311821-77.87199676691527 153.38423494990894-101.46956435488282 58.99392809554287-25.95732617188914 120.34761477500729-37.75611909149684 186.4208186223149-37.75611909149684z m0 87.3110128513536c-54.2744109276998 0-103.82932293880434 9.439034335686165-153.38421669866108 30.676843339732216-49.55491201110457 21.237809004046067-89.67077143527514 49.55491201110457-125.06713194285045 84.95127251867987s-63.71344526338597 77.87199676691527-84.95127251867987 125.06713194285045c-21.237809004046067 49.55491201110457-30.676843339732216 99.10980577096134-30.676843339732216 153.38423494990894s9.439034335686165 103.82932293880434 30.676843339732216 153.38421669866108c21.237809004046067 49.55491201110457 49.55491201110457 89.67077143527514 84.95127251867987 125.06713194285045s77.87199676691527 63.71344526338597 125.06713194285045 84.95127251867987c49.55491201110457 21.237809004046067 99.10980577096134 30.676843339732216 153.38421669866108 30.676843339732216s103.82932293880434-9.439034335686165 153.38423494990894-30.676843339732216c49.55491201110457-21.237809004046067 89.67077143527514-49.55491201110457 125.06713194285045-84.95127251867987s63.71344526338597-77.87199676691527 84.95125426743202-125.06713194285045c21.237809004046067-49.55491201110457 30.676843339732216-99.10980577096134 30.676843339732216-153.38421669866108s-9.439034335686165-103.82932293880434-30.676843339732216-153.38423494990894c-21.237809004046067-49.55491201110457-49.55491201110457-89.67077143527514-84.95125426743202-125.06713194285045s-77.87199676691527-63.71344526338597-125.06713194285045-84.95127251867987c-49.55491201110457-18.878050420124517-99.10980577096134-30.676843339732216-153.38423494990894-30.676843339732216z m0 87.31103110260136c11.798792919607704 0 21.237809004046067 4.719517167843082 30.676843339732216 11.798774668359894 9.439034335686165 9.439034335686165 11.798792919607704 18.878050420124517 11.798792919607704 30.676843339732216v245.4147649691057l117.98785619108574 117.98787444233358c9.439034335686165 9.439034335686165 11.798792919607704 18.878050420124517 11.798792919607704 30.676843339732216s-4.719517167843082 23.5975675879676-11.798792919607704 30.676843339732216c-9.439034335686165 9.439034335686165-18.878050420124517 11.798792919607704-30.676843339732216 11.798774668359894s-23.5975675879676-4.719517167843082-30.676843339732216-11.798774668359894l-132.146407694615-132.146407694615c-9.439034335686165-9.439034335686165-11.798792919607704-18.878050420124517-11.798774668359894-30.676843339732216v-261.9330750565563c0-11.798792919607704 4.719517167843082-21.237809004046067 11.798774668359894-30.676843339732216 11.798792919607704-7.079275751764625 21.237809004046067-11.798792919607704 33.03660192365375-11.798774668359894z m0 0" fill="#8a8a8a" /></svg>