<?xml version="1.0" standalone="no"?><!DOCTYPE svg PUBLIC "-//W3C//DTD SVG 1.1//EN" "http://www.w3.org/Graphics/SVG/1.1/DTD/svg11.dtd"><svg class="icon" width="128px" height="128.00px" viewBox="0 0 1024 1024" version="1.1" xmlns="http://www.w3.org/2000/svg"><path d="M486.04019253 838.43077057v111.43385441h109.36259319l316.90296888-325.87843423-109.50067727-111.5719385zM995.7085403 497.77733953l-65.86610725-67.108864c-11.46097883-11.737147-28.99765728-11.737147-40.45863611 0l-51.91961496 52.88620352 109.3625932 111.5719385 48.74368105-56.06213741c11.32289475-11.737147 11.32289475-29.82616178 0.13808407-41.28714061z" fill="#8a8a8a" /><path d="M392.69535289 882.61767691h-191.9368744c-27.47873238 0-49.84835372-23.75046215-49.84835372-52.88620352V159.19516972c0-29.13574137 22.36962133-52.88620353 49.84835372-52.88620352h600.38958986c27.47873238 0 49.84835372 23.75046215 49.84835372 52.88620352v170.67192571c0 23.06004175 18.08901478 41.83947694 40.32055201 41.83947695s40.32055203-18.7794352 40.32055205-41.83947695V159.19516972c0-75.25582486-58.5476509-136.5651574-130.3513737-136.56515742H200.75847849c-71.94180688 0-130.35137369 61.30933253-130.35137369 136.56515742v670.53630367c0 75.39390894 58.5476509 136.5651574 130.35137369 136.56515739h191.9368744c22.23153725 0 40.32055203-18.7794352 40.32055203-41.83947693s-18.08901478-41.83947694-40.32055203-41.83947694z" fill="#8a8a8a" /><path d="M755.02798486 259.85846572c0-23.06004175-18.08901478-41.83947694-40.32055204-41.83947695H282.91850747c-22.23153725 0-40.32055203 18.7794352-40.32055206 41.83947695 0 23.06004175 18.08901478 41.83947694 40.32055206 41.83947694h431.78892535c22.23153725 0 40.32055203-18.7794352 40.32055204-41.83947694zM452.07150829 565.71470801H282.91850747c-22.23153725 0-40.32055203 18.7794352-40.32055206 41.83947694 0 23.06004175 18.08901478 41.83947694 40.32055206 41.83947695h169.15300082c22.23153725 0 40.32055203-18.7794352 40.32055201-41.83947695 0-23.06004175-18.08901478-41.83947694-40.32055201-41.83947694zM282.91850747 386.06731694c-22.23153725 0-40.32055203 18.7794352-40.32055206 41.83947693 0 23.06004175 18.08901478 41.83947694 40.32055206 41.83947695h297.9854496c22.23153725 0 40.32055203-18.7794352 40.32055203-41.83947695 0-23.06004175-18.08901478-41.83947694-40.32055203-41.83947693H282.91850747z" fill="#8a8a8a" /></svg>