<?xml version="1.0" standalone="no"?><!DOCTYPE svg PUBLIC "-//W3C//DTD SVG 1.1//EN" "http://www.w3.org/Graphics/SVG/1.1/DTD/svg11.dtd"><svg class="icon" width="200px" height="200.00px" viewBox="0 0 1024 1024" version="1.1" xmlns="http://www.w3.org/2000/svg"><path d="M1001.8816 680.20906667l-174.76266667 0 0-174.76266667c0-6.00746668-4.9152-10.92266667-10.92266666-10.92266666l-43.69066667 0c-6.00746668 0-10.92266667 4.9152-10.92266667 10.92266666l0 174.76266667-174.76266666 0c-6.00746668 0-10.92266667 4.9152-10.92266667 10.92266666l0 43.69066667c0 6.00746668 4.9152 10.92266667 10.92266667 10.92266667l174.76266666 0 0 174.76266665c0 6.00746668 4.9152 10.92266667 10.92266667 10.92266668l43.69066667 0c6.00746668 0 10.92266667-4.9152 10.92266666-10.92266668l0-174.76266665 174.76266667 0c6.00746668 0 10.92266667-4.9152 10.92266667-10.92266667l0-43.69066667C1012.80426667 685.12426666 1007.88906667 680.20906667 1001.8816 680.20906667zM319.76106666 141.17546667c63.35146667 0 123.42613334 24.57599999 169.30133335 68.8128l22.93759999 22.39146665 22.93759999-22.39146665c45.8752-44.2368 105.94986668-68.81280001 169.30133335-68.8128 133.80266667 0 243.02933334 109.22666667 243.02933333 243.02933332 0 19.6608-3.82293333 39.86773333-10.92266667 61.16693333 0 0-3.27680001 9.83040001-3.27679999 15.29173334 0 18.0224 14.7456 32.768 32.76799999 32.768 15.83786667 0 27.3066667-15.83786667 32.22186668-26.76053333 4.36906667-9.83040001 15.29173332-55.15946669 15.29173333-82.46613334 0-170.3936-138.17173332-308.56533333-308.56533334-308.56533333-70.4512 0-137.6256 23.48373333-192.23893334 67.17440001l0 0c-54.61333333-43.69066667-121.78773333-67.1744-192.23893333-67.17440001-170.3936 0-308.56533333 138.17173332-308.56533333 308.56533333 0 217.36106668 355.5328 469.67466667 463.66720001 541.21813334 0.54613333 0.54613333 1.63840001 1.09226668 1.63839999 1.09226667 0 0 10.92266667 4.9152 16.93013333 4.9152 18.0224 0 32.768-14.7456 32.768-32.768 0-11.4688-6.00746668-21.84533333-15.29173333-27.30666668l0 0c-135.9872-87.38133334-435.26826667-314.5728-435.26826668-487.15093333C76.73173333 250.40213333 185.9584 141.17546667 319.76106666 141.17546667z" fill="#87c7e2" /></svg>