<?xml version="1.0" standalone="no"?><!DOCTYPE svg PUBLIC "-//W3C//DTD SVG 1.1//EN" "http://www.w3.org/Graphics/SVG/1.1/DTD/svg11.dtd"><svg class="icon" width="128px" height="128.00px" viewBox="0 0 1024 1024" version="1.1" xmlns="http://www.w3.org/2000/svg"><path d="M512.646 1024C226.701 1019.994 2.907 799.301 3.036 513.228c0-285.687 223.536-509.222 509.48-509.352 286.204-0.129 510.386 224.311 509.74 510.902-0.776 284.782-223.794 505.087-509.61 509.222z m0.13-974.641C263.01 49.1 48.776 262.299 48.39 511.677 48.002 763.381 260.684 977.097 512 977.613c249.766 0.517 464.256-212.811 464.773-462.06 0.388-252.091-212.423-465.936-463.998-466.194z m214.232 91.352c-3.23 17.831-6.202 33.854-9.174 50.005-15.376 82.954-30.623 165.778-46 248.732-9.044 48.583-17.96 97.167-27.134 145.75-0.388 2.326-1.938 4.91-3.747 6.46-83.987 71.842-167.975 143.555-252.091 215.396-28.815 24.55-57.629 49.23-86.572 73.78-1.292 1.034-2.584 2.067-5.04 4.005 1.939-10.724 3.619-20.027 5.298-29.46 25.584-138.256 51.168-276.383 76.881-414.51 0.517-2.584 2.455-5.556 4.523-7.365 64.993-55.69 130.245-111.25 195.367-166.812 47.938-40.83 95.746-81.79 143.683-122.75 0.905-0.647 1.68-1.422 4.006-3.23zM348.16 795.425l1.163 0.775c87.993-74.813 175.986-149.497 264.366-224.698-67.836-39.151-134.767-77.785-202.215-116.678-21.191 114.094-42.253 227.283-63.314 340.601z" fill="#8a8a8a" /></svg>