<?xml version="1.0" standalone="no"?><!DOCTYPE svg PUBLIC "-//W3C//DTD SVG 1.1//EN" "http://www.w3.org/Graphics/SVG/1.1/DTD/svg11.dtd"><svg class="icon" width="128px" height="97.16px" viewBox="0 0 1349 1024" version="1.1" xmlns="http://www.w3.org/2000/svg"><path d="M1178.135057 371.731848v574.668918H78.542787v-578.374021l503.367616 213.053553a119.096457 119.096457 0 0 0 92.850289 0l493.500839-208.876032c-1.558978 0.040493-3.104458 0.121479-4.670185 0.121479a185.2889 185.2889 0 0 1-110.005794-35.991466L643.628377 509.765499a39.379375 39.379375 0 0 1-30.713887-0.134977l-534.371703-225.937053V170.657455H978.10673a184.964957 184.964957 0 0 1 24.295758-77.577706H78.542787A78.110862 78.110862 0 0 0 0 170.657455v775.743311a78.110862 78.110862 0 0 0 78.542787 77.611449h1099.59227a78.110862 78.110862 0 0 0 78.542787-77.611449V347.3821a184.877222 184.877222 0 0 1-78.542787 24.349748z" fill="#87c7e2" /><path d="M1186.861283 0a162.903058 162.903058 0 1 1-162.903058 162.903058A162.903058 162.903058 0 0 1 1186.861283 0z" fill="#FB2C2C" /></svg>