<?xml version="1.0" standalone="no"?><!DOCTYPE svg PUBLIC "-//W3C//DTD SVG 1.1//EN" "http://www.w3.org/Graphics/SVG/1.1/DTD/svg11.dtd"><svg class="icon" width="128px" height="128.00px" viewBox="0 0 1024 1024" version="1.1" xmlns="http://www.w3.org/2000/svg"><path d="M928 128h-832A96 96 0 0 0 0 224v576A96 96 0 0 0 96 896h896a32 32 0 0 0 32-32v-640A96 96 0 0 0 928 128z m-832 64h832a32 32 0 0 1 32 32v76.8L512 539.52 64 300.8V224a32 32 0 0 1 32-32z m0 640a32 32 0 0 1-32-32V373.12l448 239.36 448-238.72V832z" fill="#87c7e2" /></svg>