<?xml version="1.0" standalone="no"?><!DOCTYPE svg PUBLIC "-//W3C//DTD SVG 1.1//EN" "http://www.w3.org/Graphics/SVG/1.1/DTD/svg11.dtd"><svg class="icon" width="200px" height="200.00px" viewBox="0 0 1024 1024" version="1.1" xmlns="http://www.w3.org/2000/svg"><path d="M949.947323 656.982998c0 0-28.234856-37.752439-65.16125-74.680038-35.339327-35.339327-79.43883-69.923654-79.43883-69.923654-50.821055-50.818646-133.217271-50.818646-184.038326 0 0 0-45.142294 35.62471-81.025896 71.510721-36.413427 36.413427-63.575387 73.092971-63.575387 73.092971-50.818646 50.821055-50.818646 133.219679 0 184.040734 0 0 37.756052 47.276044 74.680038 84.203642 35.339327 35.339327 69.921246 60.401254 69.921246 60.401254 50.821055 50.821055 133.217271 50.821055 184.038326 0 0 0 34.581918-25.060722 69.917633-60.401254 36.927598-36.926394 74.682446-84.203642 74.682446-84.203642C1000.76597 790.202678 1000.76597 707.807666 949.947323 656.982998zM887.519489 776.625912c0 10.517026-7.81251 18.318699-18.327128 18.318699l-109.951933 0 0 100.734182c0 10.517026-7.810102 27.473834-18.323516 27.473834l-54.976569 0c-10.514618 0-18.32472-7.798061-18.32472-18.313883l0-109.896542-109.951933 0c-10.517026 0-18.325924-7.798061-18.325924-18.315087l0-54.945261c0-10.517026 7.810102-18.317495 18.325924-18.317495l109.949525 0 0-109.89293c0-10.517026 7.810102-18.315087 18.327128-18.315087l54.97416 0c10.517026 0 18.325924 7.798061 18.325924 18.315087l0 109.89293 109.951933 0c10.514618 0 18.32472 7.800469 18.32472 18.317495l0.002408 0L887.519489 776.625912z" fill="#8a8a8a" /><path d="M503.623948 978.679492 147.829604 978.679492c-36.966131 0-67.136052-30.171125-67.136052-67.130031L80.693551 170.08707c0-37.16602 30.169921-67.136052 67.136052-67.136052l81.914557 0c12.39068 0 22.38029-9.98961 22.38029-22.375473 0-12.39068-9.98961-22.38029-22.38029-22.38029l-81.914557 0c-61.74147 0-111.890611 50.151549-111.890611 111.890611l0 741.262502c0 61.734246 50.150344 111.88459 111.890611 111.88459l401.348457 0C532.793223 1009.648967 517.60892 994.863238 503.623948 978.679492z" fill="#8a8a8a" /><path d="M723.651841 102.952222l81.11982 0c36.964927 0 67.134848 30.169921 67.134848 67.136052L871.906509 451.350692c15.585284 7.59456 30.570902 30.634722 44.755763 40.225759L916.662272 170.08707l-0.001204 0c0-61.740266-50.150344-111.890611-111.889407-111.890611l-81.11982 0c-12.384659 0-22.375473 9.98961-22.375473 22.38029C701.276368 92.960204 711.265978 102.952222 723.651841 102.952222z" fill="#8a8a8a" /><path d="M206.369245 239.217191c0 27.776076 22.375473 50.151549 50.151549 50.151549L696.081675 289.36874c27.570166 0 50.150344-22.375473 50.150344-50.151549-0.001204-27.770055-22.381494-50.150344-50.150344-50.150344l-85.91594 0L610.165735 80.176972c0-44.154893-35.765596-79.920489-79.920489-79.920489L422.354814 0.256483c-44.159709 0-79.920489 35.765596-79.920489 79.920489l0 108.889875-85.913532 0C228.744718 189.066847 206.369245 211.447136 206.369245 239.217191zM476.300632 45.21093c29.169274 0 52.945171 23.774693 52.945171 52.945171-0.001204 29.176499-23.775897 52.951192-52.945171 52.951192-29.170479 0-52.951192-23.774693-52.951192-52.951192C423.34944 68.986827 447.12895 45.21093 476.300632 45.21093z" fill="#8a8a8a" /><path d="M206.369245 441.217788c0 27.770055 22.375473 50.150344 50.151549 50.150344l267.657956 0c48.350144-49.150902 93.431026-84.515516 162.962128-100.300689L256.520794 391.067444C228.744718 391.067444 206.369245 413.442917 206.369245 441.217788z" fill="#8a8a8a" /></svg>