<?xml version="1.0" standalone="no"?><!DOCTYPE svg PUBLIC "-//W3C//DTD SVG 1.1//EN" "http://www.w3.org/Graphics/SVG/1.1/DTD/svg11.dtd"><svg class="icon" width="128px" height="128.00px" viewBox="0 0 1024 1024" version="1.1" xmlns="http://www.w3.org/2000/svg"><path d="M932.69333333 401.81333333v348.16c0 6.08-1.17333333 11.73333333-2.88 17.28l-265.6-285.65333333 116.26666667-90.45333333c-20.48-10.77333333-38.72-25.28-53.86666667-42.45333334L515.09333333 511.36 127.36 213.12h552.42666667c1.17333333-21.01333333 5.76-41.06666667 13.22666666-59.62666667H157.22666667c-65.92 0-119.25333333 53.44-119.25333334 119.25333334v477.22666666c0 65.92 53.44 119.25333333 119.25333334 119.25333334h715.84c65.92 0 119.25333333-53.44 119.25333333-119.25333334V366.93333333c-17.38666667 15.04-37.54666667 26.88-59.62666667 34.88zM97.6 749.97333333V272.74666667l268.48 208.74666666-265.6 285.65333334c-1.70666667-5.44-2.88-11.09333333-2.88-17.17333334z m46.4 58.13333334l269.12-286.82666667 101.97333333 77.12 97.6-77.54666667 273.6 287.25333334c-4.26666667 0.85333333-738.02666667 0.85333333-742.29333333 0z" fill="#8a8a8a" /><path d="M866.77333333 226.02666667m-159.04 0a159.04 159.04 0 1 0 318.08 0 159.04 159.04 0 1 0-318.08 0Z" fill="#d81e06" /></svg>