<?xml version="1.0" standalone="no"?><!DOCTYPE svg PUBLIC "-//W3C//DTD SVG 1.1//EN" "http://www.w3.org/Graphics/SVG/1.1/DTD/svg11.dtd"><svg class="icon" width="128px" height="128.00px" viewBox="0 0 1024 1024" version="1.1" xmlns="http://www.w3.org/2000/svg"><path d="M512 68.266667a443.733333 443.733333 0 1 0 443.733333 443.733333A443.733333 443.733333 0 0 0 512 68.266667z m204.8 444.3136a30.242133 30.242133 0 0 1-30.139733 30.139733H542.72v143.940267a30.242133 30.242133 0 0 1-30.139733 30.139733h-1.1264a30.242133 30.242133 0 0 1-30.139734-30.139733V542.72H337.339733a30.242133 30.242133 0 0 1-30.139733-30.139733v-1.1264a30.242133 30.242133 0 0 1 30.139733-30.173867H481.28V337.339733a30.242133 30.242133 0 0 1 30.139733-30.139733h1.1264a30.242133 30.242133 0 0 1 30.173867 30.139733V481.28h143.940267a30.242133 30.242133 0 0 1 30.139733 30.139733z" fill="#1296db" /></svg>