<?xml version="1.0" standalone="no"?><!DOCTYPE svg PUBLIC "-//W3C//DTD SVG 1.1//EN" "http://www.w3.org/Graphics/SVG/1.1/DTD/svg11.dtd"><svg class="icon" width="128px" height="128.00px" viewBox="0 0 1024 1024" version="1.1" xmlns="http://www.w3.org/2000/svg"><path d="M964.7104 258.4576l-292.864 252.0576 285.5936 271.104c6.4512-10.24 10.24-22.5792 10.24-36.096V278.528c0-6.912-1.024-13.6704-2.9696-20.0192z m-42.0352-43.52a64.512 64.512 0 0 0-20.2752-3.2256H121.2416v2.4064c-5.632 0-11.1104 0.7168-16.384 2.1504l408.1664 352.9216 409.6-354.2528z m-861.952 40.6528c-3.072 7.68-4.7616 16.2304-4.7616 25.2416v464.6912c0 12.8 3.584 24.9344 9.8304 35.2768l276.6336-282.7776-281.7024-242.432z m327.2704 281.6512l-269.056 274.9952h783.4624l-276.3776-262.2976-94.3616 81.2032c-4.6592 4.7616-11.6736 4.7616-18.6368 4.7616a26.112 26.112 0 0 1-18.688-7.168l-106.3424-91.4944z m516.7616 332.2368H121.2416C55.9616 869.4784 0 812.288 0 745.5744V278.4256c0-66.7648 55.9616-123.904 121.2416-123.904h781.1584c67.6352 0 121.2928 57.1392 121.2928 123.904v464.6912c2.304 69.12-53.6576 126.3104-118.9376 126.3104z" fill="#8a8a8a" /></svg>