<?xml version="1.0" standalone="no"?><!DOCTYPE svg PUBLIC "-//W3C//DTD SVG 1.1//EN" "http://www.w3.org/Graphics/SVG/1.1/DTD/svg11.dtd"><svg t="1625140493330" class="icon" viewBox="0 0 1024 1024" version="1.1" xmlns="http://www.w3.org/2000/svg" p-id="4100" xmlns:xlink="http://www.w3.org/1999/xlink" width="16" height="16"><defs><style type="text/css"></style></defs><path d="M891.578182 924.625455H133.352727a51.432727 51.432727 0 0 1-51.432727-51.432728V366.545455c0-28.392727 23.04-51.432727 51.432727-51.432728h336.523637c12.8 0 23.272727 10.472727 23.272727 23.272728s-10.472727 23.272727-23.272727 23.272727H133.352727c-2.56 0-4.887273 2.094545-4.887272 4.887273v506.647272c0 2.56 2.094545 4.887273 4.887272 4.887273h758.458182c2.56 0 4.887273-2.094545 4.887273-4.887273V366.545455c0-2.56-2.094545-4.887273-4.887273-4.887273h-152.669091c-12.8 0-23.272727-10.472727-23.272727-23.272727s10.472727-23.272727 23.272727-23.272728h152.669091c28.392727 0 51.432727 23.04 51.432727 51.432728v506.647272c-0.232727 28.392727-23.272727 51.432727-51.665454 51.432728z" fill="#999999" p-id="4101"></path><path d="M303.243636 760.552727c-5.585455 0-11.170909-2.094545-15.592727-6.050909a23.109818 23.109818 0 0 1-4.887273-28.16l83.781819-157.090909c0.930909-1.629091 1.861818-3.025455 3.025454-4.421818L834.094545 40.96c4.421818-4.887273 10.705455-7.912727 17.454546-7.912727s13.032727 2.792727 17.454545 7.912727l55.621819 62.603636c7.912727 8.843636 7.912727 22.109091 0 30.952728L459.869091 658.385455c-1.396364 1.396364-2.792727 2.792727-4.421818 3.956363l-139.403637 94.254546a23.04 23.04 0 0 1-12.8 3.956363z m102.865455-166.865454l-38.167273 71.68 59.112727-40.029091L875.985455 119.156364l-24.436364-27.694546-445.44 502.225455z" fill="#999999" p-id="4102"></path></svg>