<?xml version="1.0" standalone="no"?><!DOCTYPE svg PUBLIC "-//W3C//DTD SVG 1.1//EN" "http://www.w3.org/Graphics/SVG/1.1/DTD/svg11.dtd"><svg t="1625141169660" class="icon" viewBox="0 0 1024 1024" version="1.1" xmlns="http://www.w3.org/2000/svg" p-id="1879" width="16" height="16" xmlns:xlink="http://www.w3.org/1999/xlink"><defs><style type="text/css"></style></defs><path d="M362.77248 534.75328l133.70368 132.8896-187.16672 53.13024 53.46304-186.01984z m31.52896-41.3952l333.9264-331.81696 143.88224 142.98624-333.94176 331.81184-143.86688-142.98112z m63.73376 0.00512l75.01312 79.61088 275.32288-273.56672-75.02848-74.49088L458.0352 493.3632z m308.80256-370.2528l40.23808-39.9104c6.82496-6.79936 16.04096-10.68544 25.30304-10.68544 8.30464 0 15.9744 3.07712 21.58592 8.66304l99.02592 98.3808c5.62176 5.57056 8.71424 13.16352 8.72448 21.38112 0.01024 9.16992-3.88608 18.31424-10.68544 25.088l-40.33024 40.05888-143.86176-142.976z" p-id="1880" fill="#999999"></path><path d="M190.62272 983.82848c-74.48576 0-135.08608-60.60032-135.08608-135.08608V198.82496c0-74.48576 60.60032-135.08608 135.08608-135.08608h453.9904l-42.79296 47.91808H223.1808c-68.84864 0-114.62144 50.86208-114.62144 119.67488v595.15392c0 68.80768 45.7472 109.42976 114.56 109.42976h585.0368c68.81792 0 119.68512-50.8672 119.68512-119.68V437.61664l47.90272-42.76224v453.89312c0 74.48576-60.60032 135.08608-135.0912 135.08608H190.62272z" p-id="1881" fill="#999999"></path></svg>